<svg width="40" height="40" viewBox="0 0 40 40" fill="none" xmlns="http://www.w3.org/2000/svg">
<mask id="mask0_10420_512" style="mask-type:alpha" maskUnits="userSpaceOnUse" x="4" y="4" width="32" height="32">
<rect x="4" y="4" width="32" height="32" fill="#D9D9D9"/>
</mask>
<g mask="url(#mask0_10420_512)">
<path d="M26.7716 20.6667H11.3333C11.1435 20.6667 10.985 20.603 10.8576 20.4757C10.7303 20.3483 10.6666 20.1898 10.6666 20C10.6666 19.8102 10.7303 19.6517 10.8576 19.5243C10.985 19.397 11.1435 19.3333 11.3333 19.3333H26.7716L19.5206 12.082C19.3906 11.9522 19.3226 11.7992 19.3166 11.623C19.3106 11.447 19.3812 11.2854 19.5283 11.1383C19.6752 10.9965 19.8324 10.9243 20 10.9217C20.1675 10.9192 20.3247 10.9914 20.4716 11.1383L28.5793 19.246C28.6957 19.3624 28.7774 19.4813 28.8243 19.6027C28.8714 19.724 28.895 19.8564 28.895 20C28.895 20.1435 28.8714 20.276 28.8243 20.3973C28.7774 20.5187 28.6957 20.6375 28.5793 20.754L20.4716 28.8617C20.347 28.9863 20.1953 29.053 20.0166 29.0617C19.838 29.0701 19.6752 29.0034 19.5283 28.8617C19.3812 28.7146 19.3076 28.556 19.3076 28.386C19.3076 28.2158 19.3812 28.0572 19.5283 27.9103L26.7716 20.6667Z" fill="white"/>
</g>
</svg>
